<?xml version="1.0" standalone="no"?><svg xmlns="http://www.w3.org/2000/svg" viewBox="0 0 1440 320"><path fill="#0099ff" fill-opacity="1" d="M0,128L17.1,117.3C34.3,107,69,85,103,112C137.1,139,171,213,206,208C240,203,274,117,309,106.7C342.9,96,377,160,411,186.7C445.7,213,480,203,514,192C548.6,181,583,171,617,181.3C651.4,192,686,224,720,218.7C754.3,213,789,171,823,144C857.1,117,891,107,926,106.7C960,107,994,117,1029,117.3C1062.9,117,1097,107,1131,101.3C1165.7,96,1200,96,1234,96C1268.6,96,1303,96,1337,122.7C1371.4,149,1406,203,1423,229.3L1440,256L1440,320L1422.9,320C1405.7,320,1371,320,1337,320C1302.9,320,1269,320,1234,320C1200,320,1166,320,1131,320C1097.1,320,1063,320,1029,320C994.3,320,960,320,926,320C891.4,320,857,320,823,320C788.6,320,754,320,720,320C685.7,320,651,320,617,320C582.9,320,549,320,514,320C480,320,446,320,411,320C377.1,320,343,320,309,320C274.3,320,240,320,206,320C171.4,320,137,320,103,320C68.6,320,34,320,17,320L0,320Z"></path></svg>